<?xml version="1.0" standalone="no"?><!DOCTYPE svg PUBLIC "-//W3C//DTD SVG 1.1//EN" "http://www.w3.org/Graphics/SVG/1.1/DTD/svg11.dtd"><svg t="1719729516999" class="icon" viewBox="0 0 1024 1024" version="1.1" xmlns="http://www.w3.org/2000/svg" p-id="1530" xmlns:xlink="http://www.w3.org/1999/xlink" width="200" height="200"><path d="M457.53344 642.304L341.32992 526.1312l48.27136-48.26112 75.06944 75.0592c8.35584-61.1328 23.8592-120.86272 47.32928-177.4592l63.06816 26.13248a644.07552 644.07552 0 0 0-48.9984 235.79648l91.25888-91.26912L665.6 594.40128 531.2 728.80128c7.19872 56.56576 21.37088 112.56832 43.76576 166.66624h0.1024c2.4576 5.95968 5.30432 11.70432 7.92576 17.5616C718.36672 880.92672 819.2 759.57248 819.2 614.4c0-106.5984-32.53248-203.13088-102.4-273.07008-65.9968-65.9968-65.96608-172.96384 0-238.92992-282.66496 0-512 229.1712-512 512 0 169.6256 137.472 307.12832 307.06688 307.2a711.48544 711.48544 0 0 1-54.33344-279.296z" p-id="1531" fill="#aac9ba"></path></svg>